ply
format ascii 1.0
element vertex 483
property float x
property float y
property float z
property uchar red
property uchar green
property uchar blue
end_header
-0.0239051  0.0163234 -0.0608525 0 255 0
  0.207502 0.00232301  -0.050898 0 255 0
   0.507755 -0.00603547  -0.0747578 0 255 0
 0.776792 -0.019856 -0.108717 0 255 0
   1.04131  -0.015733 -0.0841468 0 255 0
-0.178169  -2.90595   7.08687 255 255 255
 0.228359 -0.797763   6.02216 255 255 255
0.360173 -2.98962  7.31942 255 255 255
   0.4818 -0.723249   6.00854 255 255 255
0.682794 -2.92434  7.58348 255 255 255
0.841848 -0.75814  6.12133 255 255 255
0.758106 -2.89001  7.59571 255 255 255
 -1.03449 -0.678948   6.49413 255 255 255
0.189419 -2.50204  7.26596 255 255 255
-0.616622 -0.489881   6.17431 255 255 255
  2.07998 -0.694076   8.27535 255 255 255
0.223617 -2.39869  7.14519 255 255 255
0.278307 -2.37569  7.16578 255 255 255
-0.478684 -0.370359    6.1076 255 255 255
-0.923541   -2.7332   7.75877 255 255 255
0.885128 -2.05514  7.17964 255 255 255
 1.13888 -1.94847  7.36384 255 255 255
  1.15736 -0.420448   6.37889 255 255 255
0.140465 -2.64432  7.37679 255 255 255
-1.25921 -1.78237  7.66745 255 255 255
0.340881 -0.26992  5.83531 255 255 255
-0.0479724   -2.69097    7.58113 255 255 255
-0.196024  -1.40268   6.31746 255 255 255
-1.05784 -2.11454  7.61202 255 255 255
0.511196  -1.4514   6.4195 255 255 255
0.473447 -1.51933  6.45438 255 255 255
0.830531  -1.4238  6.58082 255 255 255
  0.329759 -0.0696356     5.6087 255 255 255
0.510664 -1.26235  6.23168 255 255 255
-0.379403 0.0212186    5.6261 255 255 255
-0.49142 -1.14784  6.16448 255 255 255
 0.591596 0.0416726   5.90665 255 255 255
-0.18259 -1.11391  6.15223 255 255 255
 1.47546 0.104076   6.5387 255 255 255
-0.246548  -1.02295   6.09622 255 255 255
-0.171203  0.180381   5.31406 255 255 255
0.0276581  -1.04043   6.14168 255 255 255
-0.104239  -1.01486   6.11418 255 255 255
-0.432231  0.287582   5.79165 255 255 255
0.320442 -1.01514  6.07385 255 255 255
-0.386534  0.305255   5.73572 255 255 255
0.617473 0.264176  5.87891 255 255 255
 0.191602 -0.899413   6.05162 255 255 255
-0.392798 -0.858668   6.03306 255 255 255
-0.922413   0.38991   6.05147 255 255 255
  0.73322 -0.903176   6.10752 255 255 255
-0.910763 -0.807627   6.33435 255 255 255
-1.18281 0.529887  6.25742 255 255 255
 0.400811 -0.806601   5.96388 255 255 255
-0.612869 -0.981115   6.12861 255 255 255
0.548903 0.458232  5.80468 255 255 255
 0.449301 -0.788173   5.97519 255 255 255
 2.67753 0.709624  8.78058 255 255 255
-0.630468 -0.914761   6.10574 255 255 255
-0.631459 -0.742402   6.16624 255 255 255
 -1.2244 0.734051  6.29216 255 255 255
-0.882594 -0.724377   6.30906 255 255 255
0.418897  -0.8988  5.99284 255 255 255
-0.709584  0.652095    5.7385 255 255 255
 0.922429 -0.792649   6.20083 255 255 255
  1.9856 -1.11687  8.55072 255 255 255
-1.61578 -1.03733  7.82375 255 255 255
-0.978534 -0.682201   6.49388 255 255 255
-1.66112 0.960861  6.87707 255 255 255
-0.376101  0.790817   5.51052 255 255 255
 0.489275 -0.684073   6.09794 255 255 255
-0.374049 -0.796443   6.04103 255 255 255
  2.0932 -1.02319  8.47906 255 255 255
-0.250814  0.812006   5.43154 255 255 255
-0.343021  0.832262    5.4776 255 255 255
  1.39539 -0.937974   6.86059 255 255 255
-0.584849 -0.592897   6.22061 255 255 255
-0.799347   1.05903   5.73176 255 255 255
-0.972593 -0.740745   6.42403 255 255 255
 6.0622 2.71101 17.0807 255 255 255
  1.15563 -0.677452   6.40854 255 255 255
  1.15402 -0.753504   6.40088 255 255 255
0.661956 -0.57646  6.15378 255 255 255
 0.734921 -0.577315   6.16993 255 255 255
-0.299454 -0.443654   5.95462 255 255 255
  1.21627 -0.613451   6.45384 255 255 255
  2.18791 -0.818178    8.3878 255 255 255
0.845004  -0.5149  6.23189 255 255 255
-0.158895 -0.450121   5.68551 255 255 255
  1.91655 -0.765958   8.29521 255 255 255
-0.753308 -0.372564   6.23774 255 255 255
-0.472011 -0.428842   6.14688 255 255 255
   1.1448 -0.475729   6.35139 255 255 255
8.28398  3.6543 20.0293 255 255 255
 0.313433 -0.452298   5.97359 255 255 255
8.40784 3.58181 19.4856 255 255 255
  1.38775 -0.509018   6.65822 255 255 255
-1.65023  1.53635  6.79206 255 255 255
 0.251007 -0.405439    5.7412 255 255 255
  1.85083 -0.584029   8.07521 255 255 255
 0.435156 -0.340096   6.05004 255 255 255
1.22834 1.32304 6.28576 255 255 255
0.184044 -0.25547  5.49884 255 255 255
-0.0243389     1.2307    5.46658 255 255 255
-0.309614 -0.149924   5.71547 255 255 255
   2.1566 -0.481597    8.2343 255 255 255
 -0.318811 -0.0994687    5.72037 255 255 255
 0.507687 -0.280331   5.96617 255 255 255
 1.01658 -0.31121  6.24415 255 255 255
  2.08649 -0.162665   7.91581 255 255 255
8.48784  4.0519 19.1718 255 255 255
  0.334042 -0.0284777    5.54472 255 255 255
   1.47303 -0.0350124    6.56148 255 255 255
 0.547005 -0.224488   6.03481 255 255 255
  2.06427 -0.058394   7.85849 255 255 255
1.80782 1.54014 6.84758 255 255 255
-0.517861  0.152254   5.81193 255 255 255
  -1.14834 -0.0457008    6.29236 255 255 255
 0.16623 0.137596  5.22878 255 255 255
0.782854 0.129821  6.00417 255 255 255
  1.202 1.47284 6.28953 255 255 255
-1.62555  1.73959  6.74687 255 255 255
0.125331  1.34693  5.40077 255 255 255
0.760112 0.173367  5.97988 255 255 255
0.156369 0.267149  5.30592 255 255 255
 2.42229 0.370994  8.38447 255 255 255
-0.915296  0.215396   6.08971 255 255 255
2.15025 0.61116 7.86063 255 255 255
-0.540287  0.659025   5.66645 255 255 255
-0.527355  0.307103    5.7903 255 255 255
-1.76282  2.11177  5.48029 255 255 255
-0.642387   0.39531   5.83038 255 255 255
-1.12115 0.833568  6.12607 255 255 255
-0.500174  0.751629   5.61897 255 255 255
0.812872  0.32462  5.98973 255 255 255
-1.9144  1.0765 7.40526 255 255 255
-0.37792 0.760589  5.58226 255 255 255
-1.88198 0.605858  7.58873 255 255 255
5.68122 2.24378  16.756 255 255 255
0.109316 0.884432  5.45005 255 255 255
2.10889  1.1169 7.50582 255 255 255
 2.27223 0.590474  7.98168 255 255 255
-0.466811  0.555143   5.66724 255 255 255
0.820476 0.527857  5.96427 255 255 255
 10.279 3.11658 21.5636 255 255 255
-0.612124   1.01024   5.61197 255 255 255
 2.30175 0.674078   7.9557 255 255 255
-0.648761  0.665543   5.71049 255 255 255
-0.443559  0.649688   5.61341 255 255 255
-1.09774  1.24679   6.0238 255 255 255
-0.123824  0.654336   5.50512 255 255 255
 0.69618 0.658511  5.85314 255 255 255
8.53706 3.47666 19.5922 255 255 255
-0.450334   0.94151     5.572 255 255 255
-0.66901   1.2334  5.58789 255 255 255
0.315278  -2.9115  7.23748 255 255 255
-0.539238  -2.86976   7.35812 255 255 255
-0.438001   1.09994   5.57496 255 255 255
8.33991 3.83583 19.2411 255 255 255
0.414767 -2.90407  7.31499 255 255 255
-1.54579  1.59771  6.61952 255 255 255
-0.646015  -2.77287   7.31734 255 255 255
-4.66167  3.42624  13.9322 255 255 255
0.751024 -2.84782  7.63955 255 255 255
-0.604441   1.21991    5.5586 255 255 255
-1.65758  1.70678   6.8049 255 255 255
-0.521602  -2.43602   7.58311 255 255 255
-0.0922567    -1.2501    6.22061 255 255 255
-1.45639  1.63305  6.47713 255 255 255
4.71418 3.13595 13.4553 255 255 255
-0.137512  -1.18286   6.19103 255 255 255
 5.0005 3.09393 13.3269 255 255 255
0.386352 -1.22789  6.24999 255 255 255
0.415941 -1.11713  6.10268 255 255 255
-1.16318  1.64061   6.1757 255 255 255
-0.626331  -1.07907   6.22404 255 255 255
-1.56043  1.76383   6.6091 255 255 255
-0.466216  -1.06742   6.12507 255 255 255
0.624735 -1.13731  6.20303 255 255 255
-0.601076   1.44083   5.46744 255 255 255
1.27072 -1.3119 7.00379 255 255 255
-0.430781   1.40154   5.35769 255 255 255
-0.203921  -1.02735   6.09826 255 255 255
 0.284258 -0.971373   6.06702 255 255 255
-0.773815  -0.92536   6.19514 255 255 255
-1.26654  1.68091   6.1929 255 255 255
-0.133028 -0.866138   5.99992 255 255 255
 1.88087 -1.37647  8.68478 255 255 255
 1.94087 -1.30172  8.63076 255 255 255
 -1.50361 -0.941943   7.56021 255 255 255
 -0.16068 -0.803152   5.98506 255 255 255
 0.842708 -0.861221   6.14791 255 255 255
-1.02385    1.877  6.03209 255 255 255
-0.00213355    -2.40637     7.16496 255 255 255
-0.330488  -2.25007    7.0783 255 255 255
0.252887 -1.57011  6.43959 255 255 255
0.524117 -1.36656  6.38306 255 255 255
  1.08336 -0.393372   6.32005 255 255 255
 0.747291 -0.222983   6.10549 255 255 255
-0.64888 -1.17332  6.29434 255 255 255
0.0819073  -1.19813   6.20551 255 255 255
-0.87714 -2.53003  7.95405 255 255 255
0.788917 -0.11897  6.05764 255 255 255
0.243999  -1.1147  6.13122 255 255 255
0.352618 -1.03452  6.06654 255 255 255
0.375743  -1.3193  6.28836 255 255 255
-0.530927 -0.931537    6.1001 255 255 255
  2.26121 -0.213174   8.22372 255 255 255
-0.206706 -0.853098   6.02655 255 255 255
-1.49981 -1.29311  7.74603 255 255 255
 0.347232 0.0146975   5.59639 255 255 255
  1.00363 -0.895859   6.32083 255 255 255
-0.169253  0.117868    5.3208 255 255 255
 0.500395 0.0862463   5.77568 255 255 255
-0.0901144   0.178601    5.23235 255 255 255
-0.292628 -0.935606    6.0316 255 255 255
0.274939 0.286753  5.61673 255 255 255
-1.12088 -0.63186  6.70054 255 255 255
-0.663174 -0.489145   6.22266 255 255 255
 -1.02823 -0.443932   6.50442 255 255 255
 -0.49177 -0.829595   6.05303 255 255 255
-0.468062 -0.434625   6.15249 255 255 255
-0.804897 -0.788775   6.22722 255 255 255
-0.792982 -0.397219   6.28525 255 255 255
 2.64587 0.886923  8.53608 255 255 255
  1.23617 -0.515061   6.45646 255 255 255
-0.182477   0.87821   5.43462 255 255 255
  1.33457 -0.428601   6.57724 255 255 255
-0.535058   1.04291   5.62254 255 255 255
 2.27044 -0.49119  8.32248 255 255 255
 -0.534871 -0.0199982    5.80628 255 255 255
 0.651792 -0.144308   6.01397 255 255 255
  -0.288704 -0.00248109     5.58486 255 255 255
-0.391633  0.117453   5.64112 255 255 255
8.71637 3.33193 19.3946 255 255 255
  1.73353 0.0197089   7.12708 255 255 255
0.976486 0.337435   6.0694 255 255 255
 -1.0169 0.466129  6.11921 255 255 255
  2.4746 0.510732  8.52904 255 255 255
0.543946 0.352248  5.85871 255 255 255
-0.594909  0.573946   5.71773 255 255 255
 1.77444 0.618505  6.95566 255 255 255
-0.291172  0.557431   5.55066 255 255 255
-0.486666   1.41865   5.49429 255 255 255
-1.49276 0.991548  6.64375 255 255 255
2.43389 1.13043 8.10136 255 255 255
-0.205529   1.37215   5.33572 255 255 255
0.0590238  0.618537   5.51154 255 255 255
0.616085 0.619187  5.80708 255 255 255
-1.20177  1.29467  6.19946 255 255 255
-0.40197 0.732767  5.57437 255 255 255
-0.644847   1.16104   5.61828 255 255 255
-0.63712 0.821952  5.68505 255 255 255
-0.197751   0.77233   5.48506 255 255 255
-0.197248  -2.26967   7.04017 255 255 255
-1.1399 1.40181 6.14117 255 255 255
-1.30173  1.51646  6.28751 255 255 255
0.593017 -2.14615  7.01032 255 255 255
0.121752 -1.52056  6.38148 255 255 255
5.70175 2.54647 16.7604 255 255 255
-1.26094 -1.64564   7.5163 255 255 255
 6.1604 2.64751  17.098 255 255 255
0.487772 -1.22749  6.26069 255 255 255
-0.953445   1.38688   5.82907 255 255 255
-1.06288  1.61173  6.03409 255 255 255
-0.722256  -2.15014   7.28147 255 255 255
-0.222615  -1.14649   6.20277 255 255 255
-1.23519 -1.99245  7.66416 255 255 255
-0.318024 -0.944209   6.05045 255 255 255
-0.827275 -0.438279   6.25277 255 255 255
-1.72767 0.536718  7.21288 255 255 255
0.505064 0.169263  5.78183 255 255 255
-1.35003  0.47812  6.50935 255 255 255
-0.70879  0.62324  5.85468 255 255 255
-0.539738    0.9032   5.61141 255 255 255
1.98601 1.16753 7.30452 255 255 255
 0.411884 -0.973284   6.06107 255 255 255
  1.16401 -0.222657   6.52039 255 255 255
-0.612375   -0.1544   5.75938 255 255 255
-0.251813  0.287139   5.61094 255 255 255
-0.00476077   -0.688867     5.92061 255 255 255
 -0.54954 -0.644635   6.17329 255 255 255
-0.0416348  -0.186523    5.39915 255 255 255
0.0486731  0.495735   5.78876 255 255 255
  2.13119 -0.207009   7.92909 255 255 255
0.109522 -2.96124  7.28956 255 255 255
  0.421003 -0.0304649    5.77845 255 255 255
-0.27903  -2.4143  7.27362 255 255 255
0.400373 -2.44402  7.37253 255 255 255
0.327148 -2.48517  7.37029 255 255 255
-0.43239 0.186608  5.77144 255 255 255
0.864489  0.24987  6.04239 255 255 255
 0.69402 -1.53411  6.57078 255 255 255
0.348115 -1.48794  6.41388 255 255 255
 1.07927 -2.04218  7.29887 255 255 255
-0.099425  -1.28825   6.20372 255 255 255
0.302704 -1.24745  6.23682 255 255 255
-1.55285 0.640329  6.88367 255 255 255
  1.4823 -1.67984   7.7768 255 255 255
-0.467126  0.555244   5.66847 255 255 255
0.333665 -1.12437   6.1615 255 255 255
-0.144479  -1.31632   6.27301 255 255 255
0.643339 -1.05274  6.13616 255 255 255
0.278512 -1.02857  6.08457 255 255 255
-0.446015  -1.29106   6.32562 255 255 255
 1.70181 -1.63767  8.32443 255 255 255
 1.47033 -1.16609   7.1424 255 255 255
 2.77925 0.984187  8.75629 255 255 255
-0.11865 0.805478  5.43195 255 255 255
 -1.39192 -0.884094   7.31369 255 255 255
 1.05301 -0.71026  6.27735 255 255 255
  1.10169 -0.711981   6.33289 255 255 255
  1.20553 -0.699288   6.47388 255 255 255
-0.880658 -0.857016   6.24203 255 255 255
   1.9664 -0.646747   8.13966 255 255 255
-0.953542 -0.590381   6.46554 255 255 255
8.34007 3.83377 19.2352 255 255 255
  1.94058 -0.540401   8.05668 255 255 255
-0.692845 -0.366677   6.23179 255 255 255
  1.03502 -0.362393   6.35552 255 255 255
  2.17434 -0.393025   8.06253 255 255 255
1.25748 1.41466 6.27169 255 255 255
 0.609873 -0.224708   6.01819 255 255 255
1.80529 1.53703  6.8296 255 255 255
  0.93641 -0.089295   6.11489 255 255 255
    2.34059 -0.00950198      8.4817 255 255 255
 -1.53233 -0.267865   7.33143 255 255 255
  1.98928 -0.204942   7.73947 255 255 255
0.0595697  0.182793   5.18867 255 255 255
-0.215466  0.271235   5.59647 255 255 255
 2.67381 0.780186  8.71618 255 255 255
-0.218515   1.44932   5.30019 255 255 255
1.79038 1.13716 6.91218 255 255 255
8.40565  3.7166 19.3782 255 255 255
7.63317 3.69047 18.6884 255 255 255
 1.2724 1.33273 6.27907 255 255 255
0.707196   0.7823  5.83543 255 255 255
 8.7715 4.25362 19.1529 255 255 255
5.45871 2.21745 16.6889 255 255 255
-0.312519  -2.44576   7.38707 255 255 255
-0.945976   -2.3282   7.75741 255 255 255
0.169446 -1.44511  6.33825 255 255 255
-4.13201  2.50811   9.6441 255 255 255
2.58129 1.46874 6.08599 255 255 255
 1.49774 -1.47508  7.63751 255 255 255
-1.97399  1.98862  7.26623 255 255 255
-1.3435 1.22927 6.41316 255 255 255
-1.38562  1.73671   6.3512 255 255 255
0.0495138    1.4752   5.33098 255 255 255
 0.236732 -0.862081   6.01471 255 255 255
0.843479 -0.86221  6.15318 255 255 255
2.19068  1.7412 7.43543 255 255 255
-0.614569 -0.363957   6.17105 255 255 255
 2.06213 -0.37623  7.95638 255 255 255
0.487071 -1.22274  6.24596 255 255 255
 2.08751 -1.05025  8.50255 255 255 255
 0.326335 -0.400314   5.93291 255 255 255
0.577925 -1.01421  6.05691 255 255 255
 0.859952 -0.989702   6.32077 255 255 255
-0.201299 -0.650224   5.88651 255 255 255
-0.574916 -0.442874   6.17548 255 255 255
  1.34705 -0.576284    6.6311 255 255 255
 0.534618 -0.312705   6.06926 255 255 255
-0.289209  0.470754   5.59177 255 255 255
2.11673 1.44777  7.4212 255 255 255
1.95245  1.6049  7.0951 255 255 255
-0.219644   1.52158   5.32662 255 255 255
-0.269981  -1.33336   6.33455 255 255 255
-0.810817 -0.790189   6.25435 255 255 255
 1.03492 0.179775  6.27984 255 255 255
  1.28884 -0.806763   6.77587 255 255 255
2.00065 0.85609 7.01132 255 255 255
0.460465   0.5684  5.74703 255 255 255
0.234423 -2.84292  7.56038 255 255 255
-0.00485226   -0.689725     5.92476 255 255 255
-0.243736   1.05371   5.55674 255 255 255
-0.0067239   -1.66221    7.10133 255 255 255
  1.48746 -0.245529   6.67659 255 255 255
  1.46131 -0.185348   6.59296 255 255 255
     2.1217 -0.00851908     7.91602 255 255 255
 1.38569 -1.69179  7.61566 255 255 255
0.346706 -1.48625  6.40563 255 255 255
  1.4856 -1.68691  7.81752 255 255 255
 1.41916 -1.51626  7.48837 255 255 255
0.618799 -1.24332  6.34638 255 255 255
-0.242742  -1.10939   6.15243 255 255 255
1.11808 -1.0207 6.51681 255 255 255
 -1.23226 -0.927969   7.01518 255 255 255
0.398279  0.84609   5.7156 255 255 255
1.99882  1.0727 7.26795 255 255 255
1.87745 1.08914 7.02939 255 255 255
  1.46846 -0.907272   6.97629 255 255 255
-0.731797 -0.652482   6.26158 255 255 255
  1.14487 -0.475597   6.35042 255 255 255
   1.46809 0.00818343    6.54477 255 255 255
-1.72689  1.66191  6.90599 255 255 255
0.782771 0.129776  6.00356 255 255 255
0.190151 0.166888  5.23414 255 255 255
-0.398608  0.369893   5.76639 255 255 255
0.552447 0.536452  5.76062 255 255 255
-1.97419  1.93672  7.32415 255 255 255
 1.72599 0.626325  6.84802 255 255 255
5.91506 2.29728 17.1161 255 255 255
 2.52575 0.638537  8.47027 255 255 255
  2.3014 0.675901  7.95344 255 255 255
9.50293 3.01922 20.3181 255 255 255
1.78982 1.06239 6.86546 255 255 255
2.08661 1.17148 7.39117 255 255 255
-1.93261  1.36066    7.325 255 255 255
1.25963 1.37553 6.25548 255 255 255
1.87658  1.5975 6.92443 255 255 255
-1.32202  1.32288  6.37255 255 255 255
5.00867 3.19332 13.3108 255 255 255
0.200935 -1.24843  6.22962 255 255 255
0.0885832 -0.965404   6.10424 255 255 255
 0.878887 -0.960516   6.25748 255 255 255
  1.46291 -0.802926   7.00627 255 255 255
  1.45798 -0.651976    6.9028 255 255 255
-0.779224 -0.539015   6.36601 255 255 255
-0.316703 -0.497507   5.95649 255 255 255
   1.9344 -0.539148   8.02137 255 255 255
  1.31838 -0.305384   6.39463 255 255 255
 1.38712 -1.36254  7.25412 255 255 255
0.195104 -2.92125  7.38308 255 255 255
 1.24065 -1.70653  7.31409 255 255 255
-0.425449  0.746421   5.68148 255 255 255
0.452608 0.324529  5.81142 255 255 255
1.94632 1.59595  7.0632 255 255 255
-0.438678   1.50403   5.38696 255 255 255
 1.04951 -1.88976  7.40825 255 255 255
 0.214948 -0.373606   5.66941 255 255 255
   1.7375 0.0201578    7.1651 255 255 255
 0.246322 0.0919862   5.31856 255 255 255
2.03938 1.38712  7.3089 255 255 255
 0.472266 -0.193517   5.88727 255 255 255
 1.19978 0.191497  6.27723 255 255 255
0.260902 -2.84218  7.46958 255 255 255
-0.0535248   -0.17928    5.46815 255 255 255
 2.76866 0.423272  5.50197 255 255 255
-0.20371 -2.40319  7.19413 255 255 255
 0.470541 0.0326766   5.78567 255 255 255
  1.31342 -0.908141   6.75746 255 255 255
0.362105 -1.07015   6.1108 255 255 255
8.95935 3.25368 19.4739 255 255 255
 0.136697 -0.573094   5.65259 255 255 255
8.50995 3.46579 19.5326 255 255 255
-1.34152  1.23022  6.41037 255 255 255
 0.884105 -0.553759   6.20132 255 255 255
  1.23064 -0.563427   6.48598 255 255 255
 0.303302 -0.376984   5.87354 255 255 255
  2.11081 -0.337783   7.95948 255 255 255
  1.14341 -0.166434   6.21706 255 255 255
   1.47267 -0.0349767    6.56126 255 255 255
 0.370582 0.0522961   5.50136 255 255 255
0.126011 0.157715  5.19886 255 255 255
 0.78883 0.683183  5.96708 255 255 255
-0.265008  0.659122   5.52607 255 255 255
9.89453 2.99727 21.7701 255 255 255
0.675029 0.340047  5.89437 255 255 255
-0.525016   1.02412   5.53542 255 255 255
-0.171883  -1.57502   6.44103 255 255 255
3.85077 2.46313 10.2342 255 255 255
-0.0391781     -1.221    6.21377 255 255 255
 1.80734 -1.58286  8.59231 255 255 255
-0.202693  -1.02659   6.09104 255 255 255
1.47913 -1.1674 7.19485 255 255 255
1.23963 1.52469 6.24496 255 255 255
0.587336  1.89426  6.59433 255 255 255
0.763053 -2.08335  7.07375 255 255 255
0.473067 -1.52802  6.48569 255 255 255
0.249886 -1.16096  6.17438 255 255 255
 1.86424 0.231927  7.42296 255 255 255
 0.415835 -0.284731    6.0397 255 255 255
  1.72192 -0.285617   7.26189 255 255 255
 0.502043 0.0949858   5.77923 255 255 255
-0.526558   1.02867   5.55472 255 255 255
 1.94259 -0.68362  8.20251 255 255 255
 1.51377 -0.32826  7.03704 255 255 255
1.98851 1.16659 7.30394 255 255 255
1.41823 1.45968  6.2794 255 255 255
0.101961  1.41965  5.34214 255 255 255
 1.20216 0.180303  6.31708 255 255 255
0.432433 -2.00014  6.67071 255 255 255
