<?xml version="1.0" standalone="yes"?>
<!-- SVG graphic -->
<svg xmlns='http://www.w3.org/2000/svg' xmlns:xlink='http://www.w3.org/1999/xlink'
 version="1.1">
<rect x="0" y="0" width="6" height="200" stroke="black" stroke-width="1" fill="blue" tooltip="enable"><title>(0,580)</title></rect><rect x="6" y="81.0345" width="6" height="118.966" stroke="black" stroke-width="1" fill="blue" tooltip="enable"><title>(0.0135235,345)</title></rect><rect x="12" y="105.862" width="6" height="94.1379" stroke="black" stroke-width="1" fill="blue" tooltip="enable"><title>(0.027047,273)</title></rect><rect x="18" y="107.931" width="6" height="92.069" stroke="black" stroke-width="1" fill="blue" tooltip="enable"><title>(0.0405705,267)</title></rect><rect x="24" y="112.759" width="6" height="87.2414" stroke="black" stroke-width="1" fill="blue" tooltip="enable"><title>(0.054094,253)</title></rect><rect x="30" y="130" width="6" height="70" stroke="black" stroke-width="1" fill="blue" tooltip="enable"><title>(0.0676175,203)</title></rect><rect x="36" y="137.586" width="6" height="62.4138" stroke="black" stroke-width="1" fill="blue" tooltip="enable"><title>(0.081141,181)</title></rect><rect x="42" y="145.172" width="6" height="54.8276" stroke="black" stroke-width="1" fill="blue" tooltip="enable"><title>(0.0946645,159)</title></rect><rect x="48" y="154.483" width="6" height="45.5172" stroke="black" stroke-width="1" fill="blue" tooltip="enable"><title>(0.108188,132)</title></rect><rect x="54" y="160" width="6" height="40" stroke="black" stroke-width="1" fill="blue" tooltip="enable"><title>(0.121711,116)</title></rect><rect x="60" y="164.138" width="6" height="35.8621" stroke="black" stroke-width="1" fill="blue" tooltip="enable"><title>(0.135235,104)</title></rect><rect x="66" y="168.621" width="6" height="31.3793" stroke="black" stroke-width="1" fill="blue" tooltip="enable"><title>(0.148758,91)</title></rect><rect x="72" y="172.414" width="6" height="27.5862" stroke="black" stroke-width="1" fill="blue" tooltip="enable"><title>(0.162282,80)</title></rect><rect x="78" y="177.241" width="6" height="22.7586" stroke="black" stroke-width="1" fill="blue" tooltip="enable"><title>(0.175805,66)</title></rect><rect x="84" y="179.655" width="6" height="20.3448" stroke="black" stroke-width="1" fill="blue" tooltip="enable"><title>(0.189329,59)</title></rect><rect x="90" y="184.138" width="6" height="15.8621" stroke="black" stroke-width="1" fill="blue" tooltip="enable"><title>(0.202852,46)</title></rect><rect x="96" y="185.517" width="6" height="14.4828" stroke="black" stroke-width="1" fill="blue" tooltip="enable"><title>(0.216376,42)</title></rect><rect x="102" y="187.241" width="6" height="12.7586" stroke="black" stroke-width="1" fill="blue" tooltip="enable"><title>(0.229899,37)</title></rect><rect x="108" y="186.207" width="6" height="13.7931" stroke="black" stroke-width="1" fill="blue" tooltip="enable"><title>(0.243423,40)</title></rect><rect x="114" y="191.724" width="6" height="8.27586" stroke="black" stroke-width="1" fill="blue" tooltip="enable"><title>(0.256946,24)</title></rect><rect x="120" y="186.552" width="6" height="13.4483" stroke="black" stroke-width="1" fill="blue" tooltip="enable"><title>(0.27047,39)</title></rect><rect x="126" y="188.966" width="6" height="11.0345" stroke="black" stroke-width="1" fill="blue" tooltip="enable"><title>(0.283993,32)</title></rect><rect x="132" y="192.414" width="6" height="7.58621" stroke="black" stroke-width="1" fill="blue" tooltip="enable"><title>(0.297517,22)</title></rect><rect x="138" y="192.069" width="6" height="7.93103" stroke="black" stroke-width="1" fill="blue" tooltip="enable"><title>(0.31104,23)</title></rect><rect x="144" y="194.138" width="6" height="5.86207" stroke="black" stroke-width="1" fill="blue" tooltip="enable"><title>(0.324564,17)</title></rect><rect x="150" y="194.828" width="6" height="5.17241" stroke="black" stroke-width="1" fill="blue" tooltip="enable"><title>(0.338087,15)</title></rect><rect x="156" y="196.552" width="6" height="3.44828" stroke="black" stroke-width="1" fill="blue" tooltip="enable"><title>(0.351611,10)</title></rect><rect x="162" y="193.448" width="6" height="6.55172" stroke="black" stroke-width="1" fill="blue" tooltip="enable"><title>(0.365134,19)</title></rect><rect x="168" y="197.241" width="6" height="2.75862" stroke="black" stroke-width="1" fill="blue" tooltip="enable"><title>(0.378658,8)</title></rect><rect x="174" y="194.828" width="6" height="5.17241" stroke="black" stroke-width="1" fill="blue" tooltip="enable"><title>(0.392181,15)</title></rect><rect x="180" y="195.517" width="6" height="4.48276" stroke="black" stroke-width="1" fill="blue" tooltip="enable"><title>(0.405705,13)</title></rect><rect x="186" y="196.207" width="6" height="3.7931" stroke="black" stroke-width="1" fill="blue" tooltip="enable"><title>(0.419228,11)</title></rect><rect x="192" y="195.517" width="6" height="4.48276" stroke="black" stroke-width="1" fill="blue" tooltip="enable"><title>(0.432752,13)</title></rect><rect x="198" y="196.897" width="6" height="3.10345" stroke="black" stroke-width="1" fill="blue" tooltip="enable"><title>(0.446275,9)</title></rect><rect x="204" y="195.172" width="6" height="4.82759" stroke="black" stroke-width="1" fill="blue" tooltip="enable"><title>(0.459799,14)</title></rect><rect x="210" y="197.931" width="6" height="2.06897" stroke="black" stroke-width="1" fill="blue" tooltip="enable"><title>(0.473322,6)</title></rect><rect x="216" y="198.276" width="6" height="1.72414" stroke="black" stroke-width="1" fill="blue" tooltip="enable"><title>(0.486846,5)</title></rect><rect x="222" y="199.31" width="6" height="0.689655" stroke="black" stroke-width="1" fill="blue" tooltip="enable"><title>(0.500369,2)</title></rect><rect x="228" y="196.552" width="6" height="3.44828" stroke="black" stroke-width="1" fill="blue" tooltip="enable"><title>(0.513893,10)</title></rect><rect x="234" y="197.241" width="6" height="2.75862" stroke="black" stroke-width="1" fill="blue" tooltip="enable"><title>(0.527416,8)</title></rect><rect x="240" y="197.931" width="6" height="2.06897" stroke="black" stroke-width="1" fill="blue" tooltip="enable"><title>(0.54094,6)</title></rect><rect x="246" y="197.241" width="6" height="2.75862" stroke="black" stroke-width="1" fill="blue" tooltip="enable"><title>(0.554463,8)</title></rect><rect x="252" y="197.586" width="6" height="2.41379" stroke="black" stroke-width="1" fill="blue" tooltip="enable"><title>(0.567987,7)</title></rect><rect x="258" y="198.276" width="6" height="1.72414" stroke="black" stroke-width="1" fill="blue" tooltip="enable"><title>(0.58151,5)</title></rect><rect x="264" y="198.276" width="6" height="1.72414" stroke="black" stroke-width="1" fill="blue" tooltip="enable"><title>(0.595034,5)</title></rect><rect x="270" y="198.966" width="6" height="1.03448" stroke="black" stroke-width="1" fill="blue" tooltip="enable"><title>(0.608557,3)</title></rect><rect x="276" y="198.966" width="6" height="1.03448" stroke="black" stroke-width="1" fill="blue" tooltip="enable"><title>(0.622081,3)</title></rect><rect x="282" y="198.621" width="6" height="1.37931" stroke="black" stroke-width="1" fill="blue" tooltip="enable"><title>(0.635604,4)</title></rect><rect x="288" y="197.931" width="6" height="2.06897" stroke="black" stroke-width="1" fill="blue" tooltip="enable"><title>(0.649128,6)</title></rect><rect x="294" y="198.276" width="6" height="1.72414" stroke="black" stroke-width="1" fill="blue" tooltip="enable"><title>(0.662651,5)</title></rect><rect x="300" y="198.621" width="6" height="1.37931" stroke="black" stroke-width="1" fill="blue" tooltip="enable"><title>(0.676175,4)</title></rect><rect x="306" y="198.621" width="6" height="1.37931" stroke="black" stroke-width="1" fill="blue" tooltip="enable"><title>(0.689698,4)</title></rect><rect x="312" y="200" width="6" height="0" stroke="black" stroke-width="1" fill="blue" tooltip="enable"><title>(0.703222,0)</title></rect><rect x="318" y="199.655" width="6" height="0.344828" stroke="black" stroke-width="1" fill="blue" tooltip="enable"><title>(0.716745,1)</title></rect><rect x="324" y="198.966" width="6" height="1.03448" stroke="black" stroke-width="1" fill="blue" tooltip="enable"><title>(0.730269,3)</title></rect><rect x="330" y="199.31" width="6" height="0.689655" stroke="black" stroke-width="1" fill="blue" tooltip="enable"><title>(0.743792,2)</title></rect><rect x="336" y="199.31" width="6" height="0.689655" stroke="black" stroke-width="1" fill="blue" tooltip="enable"><title>(0.757316,2)</title></rect><rect x="342" y="200" width="6" height="0" stroke="black" stroke-width="1" fill="blue" tooltip="enable"><title>(0.770839,0)</title></rect><rect x="348" y="198.966" width="6" height="1.03448" stroke="black" stroke-width="1" fill="blue" tooltip="enable"><title>(0.784363,3)</title></rect><rect x="354" y="199.31" width="6" height="0.689655" stroke="black" stroke-width="1" fill="blue" tooltip="enable"><title>(0.797886,2)</title></rect><rect x="360" y="199.655" width="6" height="0.344828" stroke="black" stroke-width="1" fill="blue" tooltip="enable"><title>(0.81141,1)</title></rect><rect x="366" y="200" width="6" height="0" stroke="black" stroke-width="1" fill="blue" tooltip="enable"><title>(0.824933,0)</title></rect><rect x="372" y="199.31" width="6" height="0.689655" stroke="black" stroke-width="1" fill="blue" tooltip="enable"><title>(0.838457,2)</title></rect><rect x="378" y="199.31" width="6" height="0.689655" stroke="black" stroke-width="1" fill="blue" tooltip="enable"><title>(0.85198,2)</title></rect><rect x="384" y="198.966" width="6" height="1.03448" stroke="black" stroke-width="1" fill="blue" tooltip="enable"><title>(0.865504,3)</title></rect><rect x="390" y="199.655" width="6" height="0.344828" stroke="black" stroke-width="1" fill="blue" tooltip="enable"><title>(0.879027,1)</title></rect><rect x="396" y="200" width="6" height="0" stroke="black" stroke-width="1" fill="blue" tooltip="enable"><title>(0.892551,0)</title></rect><rect x="402" y="199.31" width="6" height="0.689655" stroke="black" stroke-width="1" fill="blue" tooltip="enable"><title>(0.906074,2)</title></rect><rect x="408" y="199.31" width="6" height="0.689655" stroke="black" stroke-width="1" fill="blue" tooltip="enable"><title>(0.919598,2)</title></rect><rect x="414" y="199.655" width="6" height="0.344828" stroke="black" stroke-width="1" fill="blue" tooltip="enable"><title>(0.933121,1)</title></rect><rect x="420" y="199.31" width="6" height="0.689655" stroke="black" stroke-width="1" fill="blue" tooltip="enable"><title>(0.946645,2)</title></rect><rect x="426" y="200" width="6" height="0" stroke="black" stroke-width="1" fill="blue" tooltip="enable"><title>(0.960168,0)</title></rect><rect x="432" y="200" width="6" height="0" stroke="black" stroke-width="1" fill="blue" tooltip="enable"><title>(0.973692,0)</title></rect><rect x="438" y="199.655" width="6" height="0.344828" stroke="black" stroke-width="1" fill="blue" tooltip="enable"><title>(0.987215,1)</title></rect><rect x="444" y="199.31" width="6" height="0.689655" stroke="black" stroke-width="1" fill="blue" tooltip="enable"><title>(1.00074,2)</title></rect><rect x="450" y="200" width="6" height="0" stroke="black" stroke-width="1" fill="blue" tooltip="enable"><title>(1.01426,0)</title></rect><rect x="456" y="199.655" width="6" height="0.344828" stroke="black" stroke-width="1" fill="blue" tooltip="enable"><title>(1.02779,1)</title></rect><rect x="462" y="200" width="6" height="0" stroke="black" stroke-width="1" fill="blue" tooltip="enable"><title>(1.04131,0)</title></rect><rect x="468" y="199.655" width="6" height="0.344828" stroke="black" stroke-width="1" fill="blue" tooltip="enable"><title>(1.05483,1)</title></rect><rect x="474" y="200" width="6" height="0" stroke="black" stroke-width="1" fill="blue" tooltip="enable"><title>(1.06836,0)</title></rect><rect x="480" y="200" width="6" height="0" stroke="black" stroke-width="1" fill="blue" tooltip="enable"><title>(1.08188,0)</title></rect><rect x="486" y="200" width="6" height="0" stroke="black" stroke-width="1" fill="blue" tooltip="enable"><title>(1.0954,0)</title></rect><rect x="492" y="199.655" width="6" height="0.344828" stroke="black" stroke-width="1" fill="blue" tooltip="enable"><title>(1.10893,1)</title></rect><rect x="498" y="200" width="6" height="0" stroke="black" stroke-width="1" fill="blue" tooltip="enable"><title>(1.12245,0)</title></rect><rect x="504" y="200" width="6" height="0" stroke="black" stroke-width="1" fill="blue" tooltip="enable"><title>(1.13597,0)</title></rect><rect x="510" y="200" width="6" height="0" stroke="black" stroke-width="1" fill="blue" tooltip="enable"><title>(1.1495,0)</title></rect><rect x="516" y="200" width="6" height="0" stroke="black" stroke-width="1" fill="blue" tooltip="enable"><title>(1.16302,0)</title></rect><rect x="522" y="199.31" width="6" height="0.689655" stroke="black" stroke-width="1" fill="blue" tooltip="enable"><title>(1.17654,2)</title></rect><rect x="528" y="200" width="6" height="0" stroke="black" stroke-width="1" fill="blue" tooltip="enable"><title>(1.19007,0)</title></rect><rect x="534" y="199.655" width="6" height="0.344828" stroke="black" stroke-width="1" fill="blue" tooltip="enable"><title>(1.20359,1)</title></rect><rect x="540" y="200" width="6" height="0" stroke="black" stroke-width="1" fill="blue" tooltip="enable"><title>(1.21711,0)</title></rect><rect x="546" y="199.655" width="6" height="0.344828" stroke="black" stroke-width="1" fill="blue" tooltip="enable"><title>(1.23064,1)</title></rect><rect x="552" y="200" width="6" height="0" stroke="black" stroke-width="1" fill="blue" tooltip="enable"><title>(1.24416,0)</title></rect><rect x="558" y="200" width="6" height="0" stroke="black" stroke-width="1" fill="blue" tooltip="enable"><title>(1.25769,0)</title></rect><rect x="564" y="200" width="6" height="0" stroke="black" stroke-width="1" fill="blue" tooltip="enable"><title>(1.27121,0)</title></rect><rect x="570" y="200" width="6" height="0" stroke="black" stroke-width="1" fill="blue" tooltip="enable"><title>(1.28473,0)</title></rect><rect x="576" y="200" width="6" height="0" stroke="black" stroke-width="1" fill="blue" tooltip="enable"><title>(1.29826,0)</title></rect><rect x="582" y="200" width="6" height="0" stroke="black" stroke-width="1" fill="blue" tooltip="enable"><title>(1.31178,0)</title></rect><rect x="588" y="200" width="6" height="0" stroke="black" stroke-width="1" fill="blue" tooltip="enable"><title>(1.3253,0)</title></rect><rect x="594" y="199.655" width="6" height="0.344828" stroke="black" stroke-width="1" fill="blue" tooltip="enable"><title>(1.33883,1)</title></rect><text x="30" y="240" font-size="20" fill="black">0</text>
<text x="600" y="240" font-size="20" fill="black">1.35235</text>
<polyline points="0,220,600,220" stroke="black" stroke-width="1" fill="none"/>
<text x="720" y="20" font-size="20" fill="black">580</text>
<text x="720" y="200" font-size="20" fill="black">0</text>
<polyline points="660,0,660,200" stroke="black" stroke-width="1" fill="none"/>
</svg>