ply
format ascii 1.0
element vertex 481
property float x
property float y
property float z
property uchar red
property uchar green
property uchar blue
end_header
-0.178194  -2.90663   7.08812 31 28 39
 0.228359 -0.797762   6.02216 88 70 68
-0.178194  -2.90663   7.08812 31 28 39
0.360311 -2.98782  7.31498  44  79 119
0.683867 -2.92397  7.58239  41  84 139
-1.38558  1.73667  6.35106 82 65 47
 0.841915 -0.758589   6.12553 69 54 47
0.757517 -2.90898  7.64759  44  84 143
 -1.03808 -0.682083   6.51167 73 61 49
-0.209164  -3.40161   9.87364 62 50 50
0.189774 -2.50171  7.26653 35 29 33
-1.61587 -0.45619  7.53864 178 166 150
  2.07939 -0.694288   8.27286 129 118  90
0.278909 -2.37629  7.16542 183 167 142
-0.922552  -2.73066   7.75144 56 51 45
0.885619 -2.05811  7.18889 201 183 171
  1.15724 -0.420461   6.38009 74 75 69
 0.14039 -2.64251  7.37195 183 159 131
0.0494913   1.47532   5.33091 172 146 131
 0.340724 -0.270377   5.83717 154 138 123
-0.0471507   -2.68907    7.57544 59 70 28
  1.67493 -0.368131   7.49908 150 152 138
-0.196022  -1.40267   6.31743 193 179 166
-1.06288 -2.12312  7.64442 168 150 128
-4.54558   3.9582   13.464 37 35 36
-4.43693  3.86295  13.1457 37 35 36
0.510901 -1.45084  6.41672 148 126 112
  1.98398 -0.208995   7.74854 215 196 156
0.510901 -1.45084  6.41672 148 126 112
0.473292 -1.51868  6.45246 215 209 195
1.37997  -1.683 7.55212 42 42 40
0.830438 -1.42323  6.57869 214 204 192
  0.329867 -0.0699281    5.60679 102  88  77
-0.144244  -1.31612   6.27141 234 227 221
0.510648 -1.26228  6.23131 180 162 148
-0.379201 0.0202717   5.62352 195 183 169
-0.491716  -1.14849   6.16611 230 229 224
 0.591632 0.0416013   5.90964 225 217 196
 1.47992 -1.67424  7.74538 171 171 147
-0.182429  -1.11391   6.15218 171 167 156
 1.47626 0.104712  6.54311 188 186 165
-0.246484  -1.02297   6.09552 184 177 169
-0.171977  0.180348   5.31721 93 77 64
0.0276603  -1.04042   6.14161 223 219 210
-0.104442  -1.01535   6.11614 217 213 204
-0.430881  0.286812    5.7851 229 223 207
0.320353   -1.015  6.07341 232 224 213
-0.386506  0.303627   5.73338 74 68 68
0.597135 0.485476   1.6991 71 62 53
0.617572 0.264016   5.8806 105  89  74
 0.191604 -0.899394    6.0515 172 157 150
 0.191604 -0.899394    6.0515 172 157 150
 -0.39314 -0.859548   6.03776 164 157 147
-0.923365  0.390443   6.05715 162 144 140
 0.733193 -0.903224   6.10828 188 172 159
-0.92197 0.389748  6.04934 162 144 140
-0.911271 -0.807958   6.33605 101  80  63
-1.18244 0.529031  6.25559 202 194 183
 0.400807 -0.806482   5.96444 177 164 155
-0.61194 -0.98068  6.12335 226 215 209
0.548898 0.458142  5.80388 205 199 185
 -1.38886 -0.886264   7.30627 176 158 136
 0.449292 -0.788356   5.97565 76 54 43
 2.67383 0.708366  8.76377 48 51 58
 -0.63061 -0.741913     6.162 63 49 36
-1.22467 0.733597  6.29299 196 183 166
 2.00887 -1.18442  8.61278 48 49 44
-0.881639 -0.723965   6.30422 136 122 111
 0.418919 -0.898911   5.99252 209 199 189
-0.709583  0.652095    5.7385 210 197 189
 0.922327 -0.792693   6.19955 197 186 180
 1.98463 -1.11626  8.54512 186 179 151
 -1.6155 -1.03698  7.82417 205 198 188
-0.978525 -0.682196   6.49383 185 171 158
-1.66094 0.960767  6.87639 105  80  49
-0.372018 -0.795492   6.03015 98 84 75
-0.250211  0.810765    5.4266 193 177 161
-0.343083  0.832902   5.48108 107  91  78
  1.39531 -0.937895   6.86002 198 187 169
 -0.58484 -0.592891   6.22054 106  97  92
-0.799315     1.059   5.73158 151 130 113
-0.972261 -0.740305   6.42116 66 52 43
   1.1558 -0.677763   6.40955 60 44 44
 1.87069 -0.89448  8.35075 162 165 148
 0.661999 -0.576313   6.15292 95 89 77
 0.734844 -0.577279   6.16972 101  93  82
  1.21614 -0.613259   6.45049 74 66 55
   2.1882 -0.817865   8.38818 185 178 152
  0.84501 -0.514901   6.23173 51 45 33
  0.84501 -0.514901   6.23173 51 45 33
  1.91834 -0.768435   8.30886 73 71 58
-0.469864 -0.427681   6.13263 85 77 74
   1.1448 -0.475758   6.35083 196 183 167
8.26189   3.642  19.969 86 87 92
 0.313432 -0.452296   5.97357 191 178 170
   1.1448 -0.475758   6.35083 196 183 167
  1.38785 -0.509628   6.66016 164 152 136
-1.65009  1.53624  6.79158 180 165 144
0.251204 -0.40495  5.73877 88 79 74
 0.435328 -0.339915   6.04855 58 57 65
  1.93475 -0.538725   8.02309 132 125 106
 0.183673 -0.255756   5.50407 134 114 107
-0.0240334    1.23035    5.46602 233 225 214
   2.1536 -0.479788   8.21802 189 183 157
 -0.317951 -0.0991486    5.71548 123 103  92
  2.34538 -0.290503   8.35472 26 33 43
  1.01741 -0.311674   6.25158 197 183 172
  0.407879 -0.0382351    5.83738 89 79 69
1.25633  1.4122 6.25834 166 157 152
  2.08731 -0.161702   7.91751 198 183 152
8.50136 4.06038 19.2065 78 76 81
  0.334042 -0.0284774    5.54467 186 177 160
   1.47266 -0.0350801    6.56076 204 197 181
     1.473 -0.0352374    6.56117 204 197 181
   2.06305 -0.0586139    7.85395 226 209 181
1.80502 1.53676 6.82854 145 138 120
-0.439958 -0.091979   5.99515 215 206 191
-0.517857  0.152253   5.81191 131 110  91
  -1.14737 -0.0461042    6.28878 155 148 129
6.33954  3.7099 16.9874 72 78 78
  -1.33139 -0.0304708    6.51194 200 190 181
0.782864 0.130121   6.0055 152 142 133
1.20199 1.47282 6.28945 32 40 77
0.782626 0.129747  6.00361 152 142 133
 0.408298 -0.103253   5.82073 192 183 168
0.782626 0.129747  6.00361 152 142 133
-1.62957  1.74258  6.76019 75 61 58
0.125243  1.34693  5.40114 77 72 69
   1.39712 -0.0418442    6.47104 84 86 81
0.0355707  0.186462   5.52368 107  94  77
 0.76011 0.173366  5.97984 159 149 147
 -1.6405 0.260767    7.155 190 184 160
-1.12801  1.69211  6.25078 90 66 56
 0.15637 0.267149  5.30592 138 115  84
2.42244  0.3715 8.38647 169 167 154
-0.915857  0.215383   6.09266 138 124 111
 2.15021 0.611149  7.86048 44 46 58
2.03803  0.6367 7.56498 147 150 143
-0.540047  0.659045   5.66612 182 166 151
-1.49831 0.845649  6.74516 196 183 164
-0.642324  0.395595   5.83187 208 200 189
-1.12115 0.833567  6.12606 161 147 136
0.812967   0.3237  5.98761 98 93 87
-1.91437  1.07649  7.40515 199 195 183
-0.377916  0.760585   5.58223 44 28 38
-1.87967 0.605342  7.58241 179 174 155
5.67797 2.24319 16.7463 76 84 86
0.109318 0.884415  5.44994 125  98  69
 2.1079 1.11672 7.49916 164 152 128
 2.27282 0.590406  7.98534 172 173 157
-0.466767  0.555208   5.66623 220 211 194
9.89974 2.99627 21.7819 161 164 157
10.0586 3.42707 24.2209  95 103 105
0.820402 0.527675  5.96142 130 121 114
10.2891 3.12035 21.5871  70  86 102
0.821497  0.52878  5.97318 130 121 114
-0.613506   1.01114   5.61755 154 141 122
 2.30126 0.675849  7.95282 53 56 65
 2.30126 0.675849  7.95282 53 56 65
-0.649729  0.666192   5.71516 157 140 122
-0.443415  0.649424     5.613 210 194 178
-0.123951  0.654536    5.5097 115  95  71
0.696793 0.659206  5.85801 122 109 100
8.54582 3.48026 19.6157 145 133 119
8.48998 3.45806 19.4854 145 133 119
-0.450299  0.941039   5.56852 125 100  78
0.316028 -2.91349  7.24302 33 34 36
0.315267 -2.90498  7.22087 33 34 36
8.62314 3.53676 21.1854 75 79 90
0.112373  -2.9345   7.3528  60  96 146
-0.539615  -2.86996   7.35891 33 31 36
-0.43797   1.0999  5.57473 192 173 158
8.34695 3.83901 19.2569 41 48 54
8.34695 3.83901 19.2569 69 73 82
0.414824 -2.90649  7.32169 33 35 32
-1.31635  1.31854    6.356 176 169 161
0.414046 -2.89365  7.28864 33 35 32
-1.54578   1.5977  6.61949 63 41 30
-0.643862  -2.76943   7.30781 38 38 40
-3.50556   2.4645  11.5111 143 135 124
-4.65046  3.41929  13.9037 51 42 45
-0.645666  -2.77211   7.31241 38 33 40
0.752477 -2.85034  7.64586 40 39 44
-0.603753   1.21914   5.55538 222 205 197
-1.65755  1.70675  6.80477 196 167 133
-0.287785  -2.39751   7.23075 59 49 48
-1.70017  1.63933  6.82843 91 64 55
-0.520692  -2.43206   7.57343 44 39 45
 1.07813 -2.04723  7.30486  54  97 152
-0.0925856   -1.25055    6.22273 167 156 152
-1.45535  1.63266  6.47396 186 174 152
4.71054 3.13329 13.4425 56 69 75
-0.0925856   -1.25055    6.22273 167 156 152
-0.137604  -1.18261   6.19014 183 173 164
4.71054 3.13329 13.4425 56 69 75
4.99953 3.09291 13.3244 57 61 60
0.386157  -1.2277  6.25012 229 222 214
5.00319 3.09636 13.3361 57 61 60
-1.97409  1.93665  7.32388 128 108  75
-1.98375  1.94133  7.34794 128 108  75
0.415515 -1.11795  6.10956 236 226 216
-1.16318  1.64061  6.17567 203 178 148
-0.62632 -1.07906  6.22396 131 119 105
4.20808 2.86486 12.3257 194 212 224
-0.62632 -1.07906  6.22396 131 119 105
-1.56567  1.76885   6.6238 119  97  84
-0.466403  -1.06776    6.1254 219 209 200
 0.62464 -1.13628  6.19772 208 200 187
 1.26974 -1.31066  6.99469 143 122 105
-0.43298  1.40693  5.38029 123  94  98
 1.27093 -1.31232  7.00479 143 122 105
-0.203894  -1.02744     6.098 136 122 111
 0.284051 -0.971445   6.06711 218 214 203
-1.26646   1.6815  6.19399 187 167 134
-0.133176  -0.86648   6.00074 237 233 221
 1.88178 -1.37818  8.69485 42 43 45
 1.88184 -1.37538  8.68487 42 43 45
 1.94112 -1.30158  8.63099 214 188 155
 1.93933 -1.30074  8.62232 214 188 155
 -1.50475 -0.942458   7.56367 155 139 124
-0.160376 -0.803214   5.98445 231 225 211
0.843667 -0.86228  6.15397 69 56 50
-1.64764  2.08655    6.623 43 35 32
-0.00329028    -2.41601     7.19654 40 35 39
0.252979 -1.57183  6.44683 216 211 207
0.524294 -1.36768  6.38736 221 214 206
  1.08349 -0.393287   6.31908 66 62 61
 0.747291 -0.222983   6.10549 216 206 194
-0.64977 -1.17387  6.29748 227 219 208
0.0815495  -1.19813   6.20599 233 226 220
 0.788887 -0.118573   6.05234 128 113 106
0.243689 -1.11525  6.13482 230 221 214
 0.788887 -0.118573   6.05234 128 113 106
0.352232 -1.03489  6.07856 237 233 222
 0.37558 -1.31953  6.28877 222 215 207
 0.64329 -1.05281  6.13627 228 216 200
-0.530754 -0.931662    6.0991 111 102  85
-0.880879 -0.859666   6.24088 199 187 175
  2.26166 -0.210079   8.22479 44 45 47
-0.206188 -0.851696   6.01921 107  94  77
-1.49965 -1.29281  7.74543 190 179 173
 0.346923 0.0141563   5.60093 197 183 172
  1.00355 -0.895642   6.31854 209 197 181
-0.170613    0.1171   5.34188 183 172 166
-1.15636  -1.0233  6.61873 127 108  94
 0.50132 0.088898  5.78627 81 65 42
 -0.29259 -0.935368   6.03008 193 186 178
 1.45155 -0.77993  6.78236 63 52 50
0.275715 0.287132  5.62473 54 38 25
 -1.12179 -0.631992    6.7047 194 181 172
-0.661604 -0.488355   6.21037 62 62 70
 2.05261 0.538525  7.61921 44 49 52
 -1.02802 -0.443621   6.50281 65 61 58
-0.494928 -0.834314   6.08199 163 150 134
-0.572899 -0.442071   6.15947 125 121 109
-0.469085 -0.435301   6.15841 94 84 83
-0.788771 -0.395952   6.26773 74 73 79
 2.64557 0.886812  8.53499 66 65 73
  1.23613 -0.515038   6.45618 70 61 52
-0.183079  0.878158   5.43607 113  82  61
  1.33519 -0.428433   6.57495 52 39 31
-0.530351   1.03458   5.58272 120 101  86
 0.530893 -0.307406   6.06829 76 76 86
-0.52756  1.03296  5.57056 120 101  86
 2.26908 -0.49152  8.31698 45 43 54
 -0.534933 -0.0199481     5.8076 200 193 183
  0.65196 -0.143972   6.01399 146 144 132
  -0.288697 -0.00248086     5.58479 201 189 173
-0.388659  0.116952   5.62781 172 159 140
8.71607 3.33181 19.3939 158 137 116
  1.73164 0.0190297   7.12503 44 44 46
-4.40147  3.03537  13.6862 42 38 39
 0.97636 0.338156  6.07586 124 116 113
-1.01589 0.465818  6.11702 201 189 175
-4.05703  3.12296  12.7321 157 145 123
 2.26553 0.209644  8.20718 41 40 45
 2.64573 0.567102   9.2075 46 50 62
0.544226 0.352721  5.84807 177 159 137
-0.595528  0.574423      5.72 231 219 203
 1.77312 0.618196  6.95033 67 66 64
-0.292258  0.558022   5.55775 191 177 164
-1.49261 0.991466  6.64319 125 103  80
-1.49261 0.991466  6.64319 236 206 180
2.43547 1.13125 8.11153 56 51 55
-0.205347   1.37172   5.33487 217 206 188
0.0590239  0.618537   5.51154 95 76 69
-1.80017  1.27912  7.17839 179 162 136
0.616057  0.61913  5.80655 171 163 161
-1.20142  1.29435  6.19792 121 105  92
-0.397296   0.72859   5.54049 100  74  61
-0.644758   1.16112   5.61922 135 112 106
-0.638167  0.822338   5.68943 116 100  85
-0.221055   1.52302    5.3282 160 138 117
-0.200828  -2.25451   6.95299 227 216 196
-1.13881  1.40085  6.13766 87 72 65
-0.198709   0.77549   5.49986 209 199 189
-1.30378  1.51904   6.2991 86 62 52
0.591248 -2.13875  6.98682 213 201 189
0.122063 -1.52028  6.38005 134 124 123
5.70155 2.54379 16.7598 59 61 74
1.94527 1.59507 7.05904 69 70 75
-1.26209 -1.64629  7.52144 235 229 217
6.10999 2.62056  16.936 117 166 207
 1.24031 -1.70943  7.30734 161 144 126
0.487308 -1.22222  6.24248 166 152 141
2.04076 1.38767 7.31658 40 35 39
-0.953407   1.38684   5.82888 156 147 138
-0.523445 -0.733591   6.14216 49 40 35
  1.34867 -0.579633    6.6542 148 136 122
-0.440647   1.50382   5.39636 203 191 169
-0.721877  -2.14869    7.2771 217 208 193
-0.224366  -1.14975   6.21567 199 179 168
 -1.2552 -2.02298  7.76212  50  96 155
-0.318451 -0.944808   6.05263 177 174 169
  1.28946 -0.807534   6.78585 146 137 132
-0.812867 -0.433681   6.18981 79 71 68
-1.72678 0.536746  7.20902 179 163 148
0.505291 0.168446  5.76871 69 59 50
-1.35378 0.477228  6.52479 127 122 119
-0.708633  0.623137   5.85368 227 214 205
0.460634 0.571011  5.76057 72 62 63
-0.539724  0.903183   5.61131 195 177 163
 1.04636 -1.89048  7.38277 195 182 165
1.98829 1.16927 7.31844 111 102  87
 0.411846 -0.973257   6.06127 222 210 198
1.96609 1.15632  7.2229 111 102  87
1.98159 1.16414  7.2818 111 102  87
 2.12772 0.390962  7.77824 41 48 56
0.104592  1.40991  5.32271 187 171 155
7.25964 2.92273 19.5574 115 167 206
  1.15964 -0.221129   6.49712 206 200 178
-0.615208 -0.154501   5.77185 225 215 203
 1.20388 0.183671  6.34939 96 83 74
-0.25222 0.288091   5.6136 67 52 45
-0.00472072    -0.68878     5.91987 231 226 223
0.251679 -2.85022  7.51849 19 50 96
-0.247409    1.0524   5.56201 81 62 55
-0.00502304   -0.688748     5.92436 231 227 218
-0.547509 -0.643564   6.15651 64 55 58
-0.0420128  -0.179735    5.37759 233 224 217
0.0484459  0.497161   5.80241 68 60 58
-0.00671407    -1.66217     7.10116 212 209 200
   1.4613 -0.185347   6.59289 222 216 192
  2.13264 -0.207058   7.93437 52 51 49
0.110463 -2.95949   7.2838 34 32 37
0.109421 -2.95802  7.28232 34 32 37
-0.157223    -2.796   7.96053 196 188 167
0.400375 -2.44396  7.37236 74 65 56
0.326526 -2.46781   7.3174 89 86 67
-0.414141   0.18034   5.63044 100  91  76
-1.25655 -1.78101  7.65699 218 203 184
0.609103 -2.47288  7.75585  34  58 106
0.864487 0.249869  6.04235 111 104  98
 0.69337 -1.54024  6.59576 158 144 135
0.348116 -1.48794  6.41385 157 140 120
0.774284 -2.07522  7.06034 183 170 153
-0.0991383   -1.28848     6.2024 223 219 208
0.302579 -1.24752  6.23754 191 173 159
-0.467022  0.555027   5.66642 220 211 194
0.333968 -1.12566  6.16692 120 105  82
0.278512 -1.02857  6.08456 128 104 100
 1.70761 -1.64555  8.38181 47 45 50
  2.7792 0.984162  8.75607 61 69 82
-0.37509 0.790543  5.50804 226 216 204
-0.11865 0.805477  5.43195 224 211 203
  1.05292 -0.710263   6.27923 165 153 131
  1.10153 -0.712306   6.33281 74 56 44
   1.9666 -0.647041   8.14047 127 121 107
 1.15397 -0.75365  6.40017 199 195 183
-0.930644 -0.577272   6.34903 88 71 61
8.38844 3.57201  19.436 87 93 89
  1.85137 -0.584822    8.0851 44 46 41
 -1.05098 -0.624646   6.77825 88 71 61
1.22748 1.32109 6.27389 65 55 56
 -0.29923 -0.443785   5.95349 217 210 194
   2.1743 -0.393016   8.06233 164 157 131
 0.608917 -0.220377   6.02333 210 204 192
1.80527   1.537 6.82948 145 138 120
   0.93641 -0.0892949    6.11488 165 148 138
    2.34806 -0.00976243     8.51942 49 48 54
0.546964 -0.22455  6.03422 236 229 219
5.48985 3.09632 12.9752 212 221 228
 2.64774 0.627237  8.74889 153 151 139
 2.67325 0.778634  8.71406 66 70 79
5.26802 2.19596 16.5814 57 60 77
-0.526949  0.306766   5.78888 180 161 147
1.78967 1.13694 6.90959 66 60 60
8.95951 3.25477 19.4744 140 130 118
7.67859 3.39772 17.6568 155 155 145
7.59745 3.67359 18.5893  96 103 111
 1.2724 1.33248 6.27902 181 182 174
8.74177 4.23715 19.0847 85 81 80
5.45417 2.21387 16.6705 155 153 138
5.46006 2.21856 16.6928 155 153 138
0.169392  -1.4455  6.33976 222 215 207
-1.65054   1.3296  6.94306 172 161 131
-1.9867 1.99886 7.30719 50 37 28
-1.34349  1.22958  6.41343 169 160 129
-1.34349  1.22958  6.41343 169 160 129
-0.771869 -0.924776   6.18796 221 212 195
 0.734924 -0.577277   6.16916 101  93  82
  2.08105 -0.694498   8.28142 129 118  90
 -0.47887 -0.370523   6.10854 230 222 203
1.23981 1.52306 6.24897 219 209 199
 -0.61487 -0.363881   6.17196 102  88  77
 1.38671 -1.35978  7.24487 161 149 127
 0.326351 -0.400251   5.93205 179 170 155
  1.31723 -0.309889   6.38659 182 169 152
  1.46845 -0.907259   6.97618 45 44 49
-0.198922 -0.644947   5.86241 194 187 169
  2.26289 -0.207247   8.23155 44 45 47
 1.86247 0.224839  7.41277 46 46 48
5.33558 2.90974 12.9746 76 84 97
-0.198727  0.772112   5.48847 209 199 189
  -5.33 3.91827 14.3612 151 145 123
2.39468 1.47232 5.86384 101  90  96
1.43332 1.49092 6.46077 78 72 72
-0.269956  -1.33331   6.33432 228 225 218
 0.214005 -0.371521   5.68279 128 119 112
 1.03345 0.180391  6.26958 100  87  81
 2.00282 0.857843  7.03652 67 62 59
-0.245823  0.285918   5.57712 67 52 45
  1.48724 -0.245458   6.67454 44 43 41
    2.12145 -0.00852041     7.91452 56 52 51
 -1.36692 0.0917529   6.51217 184 176 165
0.346711 -1.48621  6.40548 91 71 72
 1.48549 -1.68665  7.81628 171 171 147
0.617151 0.263596  5.88108 110  92  88
 1.41913 -1.51618  7.48801 60 57 42
0.618804 -1.24328  6.34618 226 220 208
 1.96288 0.560912  7.44195 51 50 48
-0.242735  -1.10938   6.15238 158 146 134
 1.11807 -1.02069  6.51674 205 197 186
-1.72692  1.09095  7.12184 197 180 160
 -0.63164 -0.915428   6.10919 94 79 76
 -1.23208 -0.927884   7.01452 136 118 106
1.99878 1.07266 7.26774 58 58 56
1.87745 1.08914 7.02938 161 145 129
-1.62681  1.31012  6.86762 172 161 131
0.706963 0.377682   1.0834  60  80 104
 1.72738 -0.53144  7.68036 158 153 134
  1.83422 -0.155474   7.41116 42 41 39
0.552449 0.536447  5.76058 202 194 181
 1.72597 0.626311  6.84787 130 118 102
5.91413 2.29686 17.1131 104 155 208
9.50256  3.0191 20.3173 116 118 115
1.78982 1.06238 6.86543 132 123 124
2.08657 1.17144 7.39092 67 64 57
-1.93197  1.36033  7.32323 59 43 46
1.25959 1.37542 6.25499 175 167 156
1.87648 1.59735 6.92382 77 70 62
2.83169 1.98846 8.70641 202 173 139
2.83169 1.98846 8.70641 202 173 139
4.69319 3.04426 13.4096 204 219 224
 1.47845 -1.16855  7.18775 38 36 39
0.0886024 -0.965377   6.10407 174 165 156
1.97158 1.68357 6.95708 194 177 151
 2.10017 -1.02916  8.52645 193 189 162
 1.45796 -0.65196  6.90263 47 42 39
0.195305 -2.92025  7.38049 40 36 37
0.195305 -2.92025  7.38049 40 36 37
-0.877755  -2.53848   7.95801 42 49 57
-0.802562 -0.788284   6.21729 71 62 67
2.93793 1.74389 9.11637 50 51 56
6.23058 3.82199 17.7719 53 51 64
9.82569 3.45429 20.2235 60 61 82
2.11702 1.44784 7.42436 47 45 50
0.249537 -1.15601  6.17925 236 227 222
0.249537 -1.15601  6.17925 236 227 222
  1.74158 0.0219534   7.19073 44 44 46
 0.246832 0.0916383   5.31375 76 66 64
-0.890978  -1.02482   6.58907 229 213 190
 0.472272 -0.193514   5.88716 211 198 181
0.430438 -2.00475  6.66837 228 220 209
2.51724 1.40555 7.78929 47 48 53
  0.57152 -0.620221   6.28606 89 79 54
-0.0239051  0.0163234 -0.0608525 0 255 0
  0.207502 0.00232301  -0.050898 0 255 0
   0.507755 -0.00603547  -0.0747578 0 255 0
 0.776792 -0.019856 -0.108717 0 255 0
   1.04131  -0.015733 -0.0841468 0 255 0
